<svg xmlns="http://www.w3.org/2000/svg" viewBox="0 0 48 48"><g data-name="08-party spray"><path d="M19 10v1H5v-1a2.006 2.006 0 0 1 2-2h10a2.006 2.006 0 0 1 2 2z" style="fill:#64e1dc"/><path d="M17 8H7a2.006 2.006 0 0 0-2 2v1a2.006 2.006 0 0 1 2-2h10a2.006 2.006 0 0 1 2 2v-1a2.006 2.006 0 0 0-2-2z" style="fill:#b4f5f0"/><path d="m15.57 29-1.07-3-2.5-7-2.5 7-1.07 3L7 33a2.015 2.015 0 0 0-2 2 2.006 2.006 0 0 0 2 2h10a2.015 2.015 0 0 0 2-2 2.006 2.006 0 0 0-2-2zM23 13v32a2.006 2.006 0 0 1-2 2H3a2.006 2.006 0 0 1-2-2V13a2.006 2.006 0 0 1 2-2h18a2.006 2.006 0 0 1 2 2z" style="fill:#b674f2"/><path d="M21 45H3a2.006 2.006 0 0 1-2-2v2a2.006 2.006 0 0 0 2 2h18a2.006 2.006 0 0 0 2-2v-2a2.006 2.006 0 0 1-2 2z" style="fill:#8f4cd6"/><path d="M21 11H3a2.006 2.006 0 0 0-2 2v2a2.006 2.006 0 0 1 2-2h18a2.006 2.006 0 0 1 2 2v-2a2.006 2.006 0 0 0-2-2z" style="fill:#d2a0f5"/><path d="M18.123 32.185 13.413 19a1.5 1.5 0 0 0-2.826 0L5.878 32.181a3.342 3.342 0 0 0-1.335.834A3.442 3.442 0 0 0 3.5 35.5 3.5 3.5 0 0 0 7 39h10a3.513 3.513 0 0 0 3.5-3.5 3.5 3.5 0 0 0-2.377-3.315z" style="fill:#a260e5"/><path d="M17 33a2.006 2.006 0 0 1 2 2 2.015 2.015 0 0 1-2 2H7a2.006 2.006 0 0 1-2-2 2.015 2.015 0 0 1 2-2z" style="fill:#bdf052"/><path style="fill:#ff73a5" d="M15.57 29 17 33H7l1.43-4h7.14z"/><path style="fill:#bdf052" d="m14.5 26 1.07 3H8.43l1.07-3h5z"/><path style="fill:#ff73a5" d="m12 19 2.5 7h-5l2.5-7z"/><path d="M18.41 34.41A1.955 1.955 0 0 1 17 35H7a2 2 0 0 1-1.721-1A1.963 1.963 0 0 0 5 35a2.006 2.006 0 0 0 2 2h10a1.984 1.984 0 0 0 1.721-3 1.938 1.938 0 0 1-.311.41z" style="fill:#93d632"/><path style="fill:#ff8fb8" d="M12 32h4.643l-1.073-3H12v3z"/><path style="fill:#ff73a5" d="M16.643 32H12v1h5l-.357-1z"/><path style="fill:#ff468c" d="M7.357 32 7 33h5v-1H7.357z"/><path style="fill:#d7fa78" d="M12 29h3.57l-1.07-3H12v3z"/><path style="fill:#ff8fb8" d="M14.5 26 12 19v7h2.5z"/><path style="fill:#ff73a5" d="M9 1h6v7H9z"/><path style="fill:#ff468c" d="M9 6h6v2H9z"/><path style="fill:#be1964" d="M11 3h2v2h-2z"/><path style="fill:#ff468c" d="M11 5h2v1h-2z"/><path style="fill:#d72878" d="M9 7h6v1H9z"/><path style="fill:#ffa1c8" d="m9 1 1 1h4l1-1H9z"/><path d="M21 13H3.154a28.829 28.829 0 0 0 4.834 13.274L10.587 19a1.5 1.5 0 0 1 2.826 0l4.71 13.189a3.444 3.444 0 0 1 2.2 4.365q1.306.575 2.677 1.022V15a2.006 2.006 0 0 0-2-2z" style="fill:#c78ff5"/><path d="M5 13h16a2.006 2.006 0 0 1 2 2v-2a2.006 2.006 0 0 0-2-2H3.025c.023.672.061 1.34.129 2z" style="fill:#e0b8ff"/><path d="M18.123 32.185 13.413 19a1.5 1.5 0 0 0-2.826 0l-2.6 7.278c.3.446.621.881.947 1.309L9.5 26l2.5-7 2.5 7 1.07 3 1.073 3L17 33a2 2 0 0 1 1.908 1.434c.007.023.015.045.021.068A1.951 1.951 0 0 1 19 35a1.979 1.979 0 0 1-.186.831c.5.253 1 .494 1.509.719a3.444 3.444 0 0 0-2.2-4.365z" style="fill:#b674f2"/><rect x="12" y="12" width="6" height="1" rx=".5" ry=".5" style="fill:#f5e1ff"/><path d="M18.5 12.5a.5.5 0 0 0 .5.5h1a.5.5 0 0 0 0-1h-1a.5.5 0 0 0-.5.5z" style="fill:#f5e1ff"/><rect x="4" y="45" width="6" height="1" rx=".5" ry=".5" style="fill:#613394"/><path d="M10.5 45.5a.5.5 0 0 0 .5.5h1a.5.5 0 0 0 0-1h-1a.5.5 0 0 0-.5.5z" style="fill:#613394"/><ellipse cx="19.003" cy="15.987" rx="1.642" ry="2.286" transform="rotate(-45.02 19.003 15.987)" style="fill:#f6fafd"/><ellipse cx="20" cy="20" rx=".825" ry="1.148" transform="rotate(-45.02 20 20)" style="fill:#f6fafd"/><ellipse cx="17.746" cy="18.5" rx=".413" ry=".574" transform="rotate(-45.02 17.746 18.5)" style="fill:#f6fafd"/><path style="fill:#ffa426" d="m47 6-1.2 1.8L47 10l-3-1-3 1 1.2-2.2L41 6h2l1-2 1 2h2z"/><path transform="rotate(-45 41 19)" style="fill:#64e1dc" d="M38.879 16.879h4.243v4.243h-4.243z"/><path style="fill:#00c8c8" d="m41 20-2-2-1 1 3 3 3-3-1-1-2 2z"/><path style="fill:#ff73a5" d="m39 25-1.2 1.8L39 29l-3-1-3 1 1.2-2.2L33 25h2l1-2 1 2h2z"/><circle cx="35" cy="3" r="2" style="fill:#bdf052"/><circle cx="28" cy="22" r="2" style="fill:#64e1dc"/><path style="fill:#ff73a5" d="M23 7h11v2H23z"/><path style="fill:#64e1dc" d="M36 7h2v2h-2z"/><path d="m31.43 2.9-.86-1.8c-.567.27-1.214.541-1.921.806l.7 1.873A25.472 25.472 0 0 0 31.43 2.9z" style="fill:#a7e340"/><path d="M26.7 2.586A34.77 34.77 0 0 1 18 4v2a36.606 36.606 0 0 0 9.3-1.506z" style="fill:#e991f5"/><path d="M38.277 14.948c-1.5-1.167-2.911-2.263-4.659-2.43a5.358 5.358 0 0 0-1.425-1.508c-1.232-.956-3.739-1.029-6.646-1.011H25v2h.555c1.5-.01 4.625-.02 5.409.589.08.062.145.117.212.172a4.505 4.505 0 0 0-2.309 1.524 2.3 2.3 0 0 0-.5 1.858 2.388 2.388 0 0 0 1.67 1.758 2.413 2.413 0 0 0 .684.1 2.874 2.874 0 0 0 1.771-.666 3.4 3.4 0 0 0 1.5-2.713 10.346 10.346 0 0 1 3.056 1.906l.341.266 1.226-1.58zm-6.287-.315a1.637 1.637 0 0 1-.73 1.124.779.779 0 0 1-.658.223.444.444 0 0 1-.271-.226c0-.019.014-.106.137-.271a2.657 2.657 0 0 1 1.523-.877z" style="fill:#d2a0f5"/><circle cx="35" cy="3" r="1" style="fill:#a7e340"/><circle cx="28" cy="22" r="1" style="fill:#b4f5f0"/><path d="M21 10h-1a3 3 0 0 0-3-3h-1V1a1 1 0 0 0-1-1H9a1 1 0 0 0-1 1v6H7a3 3 0 0 0-3 3H3a3 3 0 0 0-3 3v28h2V13a1 1 0 0 1 1-1h18a1 1 0 0 1 1 1v2h2v-2a3 3 0 0 0-3-3zM10 2h4v5h-4zm-4 8a1 1 0 0 1 1-1h10a1 1 0 0 1 1 1z"/><path d="M22 45a1 1 0 0 1-1 1H3a1 1 0 0 1-1-1v-2H0v2a3 3 0 0 0 3 3h18a3 3 0 0 0 3-3V21h-2zM22 17h2v2h-2zM11 3h2v2h-2z"/><path d="M17 38a2.994 2.994 0 0 0 .742-5.9l-4.8-13.44a1 1 0 0 0-1.884 0l-4.8 13.44A2.994 2.994 0 0 0 7 38zm-7.867-8h5.734l.714 2H8.419zm5.019-2h-4.3l.357-1H13.8zM12 21.973 13.081 25h-2.162zM6 35a1 1 0 0 1 1-1h10a1 1 0 0 1 0 2H7a1 1 0 0 1-1-1zM39.882 24.528A1 1 0 0 0 39 24h-1.382l-.718-1.447a1.042 1.042 0 0 0-1.79 0L34.382 24H33a1 1 0 0 0-.832 1.555l.865 1.3-.911 1.669a1 1 0 0 0 1.194 1.428l2.684-.9 2.684.9A1.014 1.014 0 0 0 39 30a1 1 0 0 0 .878-1.479l-.911-1.669.865-1.3a1 1 0 0 0 .05-1.024zm-2.914 1.717a1 1 0 0 0-.062 1l-.59-.2a1 1 0 0 0-.632 0l-.59.2a1 1 0 0 0-.062-1L34.869 26H35a1 1 0 0 0 .9-.553l.1-.211.1.211A1 1 0 0 0 37 26h.131zM46.967 7.852l.865-1.3A1 1 0 0 0 47 5h-1.382L44.9 3.553a1.042 1.042 0 0 0-1.79 0L42.382 5H41a1 1 0 0 0-.832 1.555l.865 1.3-.911 1.669a1 1 0 0 0 1.194 1.428L44 10.054l2.684.895A1.014 1.014 0 0 0 47 11a1 1 0 0 0 .878-1.479zm-2-.607a1 1 0 0 0-.062 1l-.59-.2a1 1 0 0 0-.632 0l-.59.2a1 1 0 0 0-.062-1L42.869 7H43a1 1 0 0 0 .9-.553l.1-.211.1.211A1 1 0 0 0 45 7h.131zM35 6a3 3 0 1 0-3-3 3 3 0 0 0 3 3zm0-4a1 1 0 1 1-1 1 1 1 0 0 1 1-1zM28 19a3 3 0 1 0 3 3 3 3 0 0 0-3-3zm0 4a1 1 0 1 1 1-1 1 1 0 0 1-1 1zM23 7h2v2h-2zM27 7h7v2h-7zM36 7h2v2h-2zM31.426 2.905 30.574 1.1a27.38 27.38 0 0 1-1.931.815l.713 1.869a31.253 31.253 0 0 0 2.07-.879zM26.7 2.587A34.13 34.13 0 0 1 18 4v2a36.459 36.459 0 0 0 9.3-1.507zM32.193 11.006c-1.224-.953-3.727-1.021-6.628-1.007H25v2h.574c1.5 0 4.612-.02 5.39.586.078.06.149.117.215.17a4.519 4.519 0 0 0-2.306 1.524 2.3 2.3 0 0 0-.5 1.872A2.411 2.411 0 0 0 30.713 18a2.876 2.876 0 0 0 1.773-.666 3.394 3.394 0 0 0 1.506-2.723 10.415 10.415 0 0 1 3.071 1.928l.323.252 1.228-1.579-.319-.249c-1.5-1.173-2.919-2.283-4.654-2.45a5.441 5.441 0 0 0-1.448-1.507zm-.2 3.625a1.65 1.65 0 0 1-.743 1.13.768.768 0 0 1-.647.222.464.464 0 0 1-.268-.224c0-.029.017-.119.134-.274a2.651 2.651 0 0 1 1.524-.883zM41.707 15.293a1 1 0 0 0-1.414 0l-3 3a1 1 0 0 0 0 1.414l3 3a1 1 0 0 0 1.414 0l3-3a1 1 0 0 0 0-1.414zM41 20.586 39.414 19 41 17.414 42.586 19z"/></g></svg>